# xmcd CD database file
#
# Track frame offsets:
#	150
#	37328
#	68640
#	101025
#	134804
#	166011
#	200128
#	238550
#	262926
#	292106
#
# Disc length: 4388 seconds
#
# Revision: 5
# Processed by: cddbd v1.5.2PL0 Copyright (c) Steve Scherf et al.
# Submitted via: CDex 1.51
#
DISCID=9b11220a
DTITLE=Patricia Cornwell - 10 - Blinder Passagier CD05
DYEAR=2002
DGENRE=Krimi
TTITLE0=501
TTITLE1=502
TTITLE2=503
TTITLE3=504
TTITLE4=505
TTITLE5=506
TTITLE6=507
TTITLE7=508
TTITLE8=509
TTITLE9=510
EXTD=YEAR: 2002
EXTT0=
EXTT1=
EXTT2=
EXTT3=
EXTT4=
EXTT5=
EXTT6=
EXTT7=
EXTT8=
EXTT9=
PLAYORDER=
